<?xml version="1.0" standalone="no"?>
<!DOCTYPE svg PUBLIC "-//W3C//DTD SVG 20010904//EN"
 "http://www.w3.org/TR/2001/REC-SVG-20010904/DTD/svg10.dtd">
<svg version="1.0" xmlns="http://www.w3.org/2000/svg"
 width="451.000000pt" height="451.000000pt" viewBox="0 0 451.000000 451.000000"
 preserveAspectRatio="xMidYMid meet">
<metadata>
Created by potrace 1.11, written by Peter Selinger 2001-2013
</metadata>
<g transform="translate(0.000000,451.000000) scale(0.100000,-0.100000)"
fill="#000000" stroke="none">
<path d="M2835 4290 c-99 -5 -290 -16 -425 -25 -806 -52 -1037 -65 -1320 -76
-173 -6 -419 -9 -546 -6 l-232 6 -6 -30 c-11 -56 -39 -100 -114 -182 -74 -80
-122 -161 -122 -204 0 -18 12 -25 77 -47 150 -49 304 -68 678 -86 270 -13 400
-26 529 -51 113 -23 238 -68 278 -101 l28 -23 11 -228 c10 -224 5 -505 -21
-1152 -13 -306 -12 -876 0 -1050 25 -344 82 -599 172 -780 34 -67 107 -175
118 -175 5 0 52 28 106 62 150 94 386 204 749 348 516 206 702 313 811 466 46
64 86 162 99 240 6 39 5 42 -35 68 -56 37 -149 59 -213 51 -95 -12 -204 -44
-388 -115 -252 -98 -348 -122 -479 -123 -58 -1 -111 3 -119 7 -27 17 -9 442
59 1331 36 477 47 668 56 942 l7 212 31 10 c132 43 164 46 681 47 596 2 691
11 842 85 155 75 231 219 221 422 -2 50 -8 81 -16 86 -17 10 -208 37 -407 57
-181 18 -848 26 -1110 14z"/>
</g>
</svg>
